<svg width="401" height="132" viewBox="0 0 401 132" fill="none" xmlns="http://www.w3.org/2000/svg">
<path fill-rule="evenodd" clip-rule="evenodd" d="M65.9276 118.653C95.0737 118.653 118.701 95.025 118.701 65.8789C118.701 36.7327 95.0737 13.1051 65.9276 13.1051C36.7814 13.1051 13.1538 36.7327 13.1538 65.8789C13.1538 95.025 36.7814 118.653 65.9276 118.653ZM65.9272 29.9926C69.0998 29.9926 72.1424 31.2529 74.3857 33.4962C76.6291 35.7396 77.8894 38.7822 77.8894 41.9548V53.917L53.9653 53.917L53.9653 41.9548C53.9653 38.7823 55.2256 35.7397 57.4689 33.4964C59.7121 31.253 62.7547 29.9927 65.9272 29.9926ZM53.9653 53.917V65.8792C53.9653 69.0518 52.705 72.0944 50.4617 74.3378C48.2183 76.5811 45.1757 77.8414 42.0031 77.8414C38.8305 77.8414 35.7879 76.5811 33.5445 74.3378C31.3012 72.0944 30.0409 69.0518 30.0409 65.8792C30.0409 62.7067 31.3012 59.664 33.5445 57.4207C35.7879 55.1773 38.8305 53.917 42.0031 53.917H53.9653ZM77.889 77.8415L77.8894 53.917L101.814 53.917C101.814 67.1301 91.1021 77.8415 77.889 77.8415ZM77.889 77.8415V89.8037C77.8889 92.1695 77.1873 94.4821 75.8729 96.4492C74.5585 98.4162 72.6903 99.9493 70.5046 100.855C68.3189 101.76 65.9138 101.997 63.5935 101.535C61.2731 101.074 59.1418 99.9345 57.4689 98.2616C55.796 96.5887 54.6568 94.4574 54.1952 92.137C53.7336 89.8167 53.9705 87.4116 54.8758 85.2259C55.7811 83.0401 57.3143 81.172 59.2813 79.8575C61.2484 78.5431 63.561 77.8415 65.9268 77.8415H77.889Z" fill="#282650"/>
<path d="M321.668 94.5078C325.763 96.6531 330.509 97.7257 335.905 97.7257C341.495 97.7257 346.338 96.6531 350.434 94.5078C354.594 92.2976 357.78 89.2097 359.99 85.2443C362.265 81.2788 363.403 76.6633 363.403 71.3977V34.032H352.091V71.3977C352.091 74.5831 351.441 77.3784 350.141 79.7837C348.841 82.1239 346.956 83.9766 344.486 85.3418C342.08 86.6419 339.285 87.292 336.1 87.292C332.979 87.292 330.216 86.6419 327.811 85.3418C325.406 83.9766 323.521 82.1239 322.156 79.7837C320.855 77.3784 320.205 74.5831 320.205 71.3977V34.032H308.894V71.3977C308.894 76.6633 309.999 81.2788 312.209 85.2443C314.485 89.2097 317.637 92.2976 321.668 94.5078Z" fill="#282650"/>
<path d="M376.511 34.032V96.3606H387.822V34.032H376.511Z" fill="#282650"/>
<path fill-rule="evenodd" clip-rule="evenodd" d="M194.32 96.4574L187.724 79.6855H162.622L156.027 96.4574H144.033L169.127 34.1289H181.121L206.313 96.4574H194.32ZM175.173 47.7674L183.775 69.6419H166.571L175.173 47.7674Z" fill="#282650"/>
<path d="M229.852 97.6276C226.602 97.6276 223.611 97.14 220.881 96.1649C218.151 95.1898 215.81 93.8246 213.86 92.0694C211.91 90.2492 210.415 88.1365 209.375 85.7312L218.833 81.5382C219.808 83.3585 221.239 84.8861 223.124 86.1213C225.074 87.3564 227.219 87.974 229.56 87.974C232.095 87.974 234.11 87.5514 235.605 86.7063C237.165 85.7962 237.946 84.5611 237.946 83.0009C237.946 81.5057 237.36 80.3681 236.19 79.588C235.02 78.7429 233.362 78.0603 231.217 77.5403L226.634 76.2726C222.019 75.1025 218.411 73.2498 215.81 70.7145C213.21 68.1142 211.91 65.1564 211.91 61.841C211.91 56.9654 213.47 53.195 216.591 50.5297C219.776 47.8644 224.326 46.5317 230.242 46.5317C233.232 46.5317 235.963 46.9868 238.433 47.8969C240.968 48.742 243.146 49.9771 244.966 51.6023C246.787 53.1625 248.054 55.0152 248.769 57.1605L239.701 61.2559C239.051 59.6307 237.815 58.3956 235.995 57.5505C234.175 56.6404 232.16 56.1853 229.95 56.1853C227.739 56.1853 226.017 56.6729 224.781 57.648C223.546 58.5581 222.929 59.8583 222.929 61.5485C222.929 62.5236 223.481 63.4337 224.586 64.2788C225.692 65.0589 227.284 65.7089 229.365 66.229L235.118 67.5941C238.303 68.3742 240.903 69.6094 242.919 71.2996C244.934 72.9248 246.429 74.7775 247.404 76.8577C248.379 78.8729 248.867 80.9207 248.867 83.0009C248.867 85.9262 248.022 88.494 246.331 90.7043C244.706 92.9145 242.464 94.6372 239.603 95.8724C236.743 97.0425 233.492 97.6276 229.852 97.6276Z" fill="#282650"/>
<path d="M269.504 82.2691V96.4574H258.583V34.1289H269.504V67.5495L287.739 47.7019H300.903L282.56 67.8965L302.561 96.4574H289.592L275.48 75.6906L269.504 82.2691Z" fill="#282650"/>
</svg>
